<?xml version="1.0" encoding="UTF-8" standalone="no"?>
<!DOCTYPE svg PUBLIC "-//W3C//DTD SVG 1.1//EN" "http://www.w3.org/Graphics/SVG/1.1/DTD/svg11.dtd">
<svg width="100%" height="100%" viewBox="0 0 1000 1000" version="1.1" xmlns="http://www.w3.org/2000/svg" xmlns:xlink="http://www.w3.org/1999/xlink" xml:space="preserve" xmlns:serif="http://www.serif.com/" style="fill-rule:evenodd;clip-rule:evenodd;stroke-linejoin:round;stroke-miterlimit:2;">
    <rect x="0" y="0" width="1000" height="1000" style="fill:rgb(71,70,76);"/>
    <g transform="matrix(1.27573,0,0,1.27573,173.414,173.414)">
        <path d="M0,96C0,60.7 28.7,32 64,32L448,32C483.3,32 512,60.7 512,96L512,416C512,451.3 483.3,480 448,480L64,480C28.7,480 0,451.3 0,416L0,96ZM66.4,402.4C70.4,410.7 78.8,416 88,416L424,416C432.9,416 441.1,411.1 445.2,403.2C449.3,395.3 448.8,385.8 443.8,378.5L323.8,202.5C319.3,195.9 311.9,192 304,192C296.1,192 288.6,195.9 284.2,202.5L197.2,330.1L170.7,297C166.1,291.3 159.2,288 152,288C144.8,288 137.8,291.3 133.3,297L69.3,377C63.5,384.2 62.4,394.1 66.4,402.4Z" style="fill:rgb(120,116,174);fill-opacity:0.4;fill-rule:nonzero;"/>
    </g>
    <g transform="matrix(1.27573,0,0,1.27573,173.414,173.414)">
        <path d="M323.8,202.5C319.3,195.9 311.9,192 304,192C296.1,192 288.6,195.9 284.2,202.5L197.2,330.1L170.7,297C166.1,291.3 159.2,288 152,288C144.8,288 137.8,291.3 133.3,297L69.3,377C63.5,384.2 62.4,394.1 66.4,402.4C70.4,410.7 78.8,416 88,416L424,416C432.9,416 441.1,411.1 445.2,403.2C449.3,395.3 448.8,385.8 443.8,378.5L323.8,202.5Z" style="fill:rgb(87,97,169);fill-rule:nonzero;"/>
    </g>
    <g transform="matrix(0.551056,0,0,0.551056,200.249,253.838)">
        <path d="M192,64C192,67.2 194,70.1 197,71.2L234.7,85.3L248.8,123C249.9,126 252.8,128 256,128C259.2,128 262.1,126 263.2,123L277.3,85.3L315,71.2C318,70.1 320,67.2 320,64C320,60.8 318,57.9 315,56.8L277.3,42.7L263.2,5C262.1,2 259.2,0 256,0C252.8,0 249.9,2 248.8,5L234.7,42.7L197,56.8C194,57.9 192,60.8 192,64ZM316.7,124.7C329.9,137.9 343.1,151.1 356.3,164.3L461.3,59.3L484.6,82.6L379.6,187.6C392.8,200.8 406,214 419.2,227.2C456.1,190.3 493,153.4 529.9,116.5C548.6,97.8 548.6,67.4 529.9,48.6L495.3,14.1C476.6,-4.6 446.2,-4.6 427.4,14.1C390.5,51 353.6,87.8 316.7,124.7Z" style="fill:rgb(106,255,103);fill-opacity:0.4;fill-rule:nonzero;"/>
    </g>
    <g transform="matrix(0.551056,0,0,0.551056,200.249,253.838)">
        <path d="M419.2,227.2L316.7,124.7L46.1,395.4C27.4,414.1 27.4,444.5 46.1,463.3L80.7,497.9C99.4,516.6 129.8,516.6 148.6,497.9L419.2,227.2Z" style="fill-rule:nonzero;"/>
    </g>
</svg>
